<?xml version="1.0" encoding="utf-8"?>
<!-- Generator: Adobe Illustrator 19.1.0, SVG Export Plug-In . SVG Version: 6.00 Build 0)  -->
<svg version="1.1" id="Layer_1" xmlns="http://www.w3.org/2000/svg" xmlns:xlink="http://www.w3.org/1999/xlink" x="0px" y="0px"
	 viewBox="0 0 300 100" style="enable-background:new 0 0 300 100;" xml:space="preserve">
<g id="XMLID_327_">
	<path id="XMLID_372_" d="M114.7,48.3c0.2-0.1,0.2,0.3,0.1,0.4C114.7,48.8,114.6,48.4,114.7,48.3L114.7,48.3z"/>
	<path id="XMLID_371_" d="M149.2,42.2c1.3-0.8,2.7-1.6,4.2-1.6c1.5,0.1,3.1,1.4,2.8,2.9c1.3-0.8,2.8-1.5,4.3-1.1
		c1.9,0.6,2.7,2.8,2.9,4.8c0.1,1.5,0,3-0.2,4.4c-0.1,0.8-0.3,1.6-0.8,2.2c-0.5,0.6-1.2,1.1-2,1c-0.9-0.1-1.5-0.9-1.8-1.7
		c-0.2-0.8-0.2-1.7-0.1-2.6c0.2-1.8,0.4-3.7,0.6-5.5c-1.2,0.4-2.1,1.5-2.5,2.7c-0.5,1.2-0.6,2.5-0.9,3.7c-0.3,1.1-0.8,2.3-2,2.4
		c-1,0.1-1.8-0.9-2-2s0.3-2,0.5-3c0.4-1.6,0.6-3.4,0.4-5.1c0-0.1,0-0.3-0.1-0.4c-0.2-0.3-0.6-0.2-0.9,0c-1.5,0.8-2,2.8-2.3,4.5
		c-0.5,2.6-0.9,5.1-1.4,7.7c-0.9-0.3-1.7-0.7-2.6-1c-1.1,0.7-2.6-0.5-2.8-1.8s0.5-2.6,0.8-3.9c0.7-2.4,0.5-5,1-7.5
		c0.3-1.5,1.1-3.2,2.6-3.2c0.9,0,1.7,0.6,2.1,1.4C149.6,40.3,149.5,41.3,149.2,42.2z"/>
	<path id="XMLID_370_" d="M165.6,36.4c0.2-0.2,0.5-0.2,0.7-0.1C166.3,36.6,165.7,36.7,165.6,36.4L165.6,36.4z"/>
	<path id="XMLID_369_" d="M109.1,51.1c-0.2,0.3-0.5,0.5-0.7,0.8c1.9-0.5,4-0.1,5.6,1c2.2,1.6,5.4,0.6,7.9,1.6
		c1.6,0.7,3.1,2.2,4.7,1.7c0.4-0.1,0.9,0,1.4,0.2c1.9,0.6,3.8,1.5,5.4,2.6c0.7,0.5,1.5,1.2,1.2,2c-0.6,0.5-1.4,0.3-2.1,0
		c-0.7-0.3-1.4-0.7-2.1-0.7c-1.5,0-2.4,1.8-2.4,3.2c0,1,0.6,2.4,1.6,2.2c1.8-0.3,3.7,0.2,5.1,1.4c-0.5-0.2-1.1-0.1-1.3,0.4
		c0.4,0.3,0.9,0.5,1.3,0.8c-2.1,0.6-4.3,1.3-6.5,0.8c-1.8-0.4-3.5-1.7-4.3-3.3s-0.9-3.7-0.2-5.5c0.3-0.7-0.2-1.5-0.9-1.8
		c-0.7-0.3-1.4-0.3-2.2-0.3c-2.5-0.1-4.9-0.8-7-2.2c-0.6-0.4-1.4,0.2-1.5,0.9c-0.1,0.7,0.4,1.3,0.8,1.8c0.7,0.7,1.5,1.2,2.5,1.6
		c0.9,0.3,1.9,0.4,2.9,0.8c0.9,0.4,1.8,1.1,2,2c0.2,1.3-0.8,2.5-1.8,3.4c-1.3,1.2-2.8,2.5-4.6,2.3c-3.7-0.6-7.4-2.1-10.4-4.3
		c-0.3-0.2-0.6-0.5-0.8-0.8c-0.2-0.6,0.1-1.2,0.6-1.6c0.5-0.3,1.1-0.4,1.7-0.4c0.8,0,1.6,0.3,2,0.9c0.9,1.6,2.6,2.7,4.4,2.9
		c1.8,0.2,3.7-0.5,4.9-1.9c-2.8-0.3-5.4-1.7-7.2-3.8c-1.7-2.2-2.4-5.2-1.6-7.9c0.1-0.3,0.3-0.7,0.5-0.9
		C108.5,50.8,108.9,50.8,109.1,51.1z"/>
	<path id="XMLID_368_" d="M146.5,29.4c-0.2,0.2-0.6,0.1-0.7-0.1c0.2-0.3,0.8-0.3,0.9,0.1L146.5,29.4z"/>
	<path id="XMLID_365_" d="M198.9,62.2c0.4,1.9-0.9,3.9-2.7,4.8c-1.7,0.9-3.8,0.9-5.8,0.6c-1.2-0.2-2.6-0.5-3.7,0
		c0.2,0.3,0.3,0.6,0.5,1c-1.5,0.6-3.4,0.4-4.7-0.5c-1.4-0.9-2.3-2.4-2.7-4c-0.6-2.4,0.2-5,1.7-6.9c0.6-0.8,1.4-1.5,2.4-1.8
		s2.1,0,2.7,0.8c0.3,0.4,0.4,0.8,0.5,1.3c0.2,1.9-0.8,3.8-2.6,4.6c-1,0.5-1.1,2.1-0.4,2.9c0.7,0.9,1.9,1.2,3,1.5
		c0.4,0.1,0.8,0.2,1-0.1c0.1-0.1,0.1-0.3,0.2-0.5c0.3-0.8,1.3-1,2.1-0.8c0.8,0.1,1.8,0.3,2.4-0.2c0.9-0.7,0.5-2.2-0.3-3
		c-0.8-0.8-1.9-1.3-2.6-2.2c-1-1.3-0.7-3.3,0.4-4.5c1.1-1.2,2.8-1.8,4.4-1.6c0.9,0.1,1.8,0.4,2.4,1.1c0.6,0.7,0.7,1.8,0,2.5
		c-0.3,0.3-0.9,0.4-1.2,0.1c-0.4-0.5-0.8-1-1.4-1.3s-1.4-0.3-1.8,0.2c-0.5,0.5-0.4,1.4,0.3,1.6c1.2,0.4,2.5,0.8,3.5,1.5
		C197.7,59.9,198.6,61,198.9,62.2 M183.2,60.9c0.6-0.4,1.1-0.9,1.7-1.3c0.3-0.2,0.6-0.5,0.7-0.9c0.1-0.7-0.8-1.1-1.4-0.9
		s-1,0.9-1.2,1.5c-0.2,0.4-0.3,0.9-0.4,1.4c0,0.1,0,0.2,0,0.3C182.8,61.2,183.1,61.1,183.2,60.9z"/>
	<path id="XMLID_364_" d="M119.8,47.2c-0.2,0.6-0.4,1.3,0,1.7c0.6,0.7-0.1,1.7-0.8,2.3c-0.3-0.3-0.6-0.5-0.9-0.6
		c0.1,0.5,0.2,0.9,0.3,1.4c-0.7-0.9-1.7-1.5-2.8-1.6c-0.4,0-0.8,0-1.2-0.3c-0.3-0.2-0.4-0.8,0-1c-0.2,0.3,0.2,0.7,0.5,0.6
		c0.3-0.1,0.5-0.4,0.5-0.8c0-0.3-0.1-0.7-0.1-1c-0.1-0.7,0.1-1.3,0.3-1.9c0.9-2.7,1.8-5.4,2.7-8c0.5-1.3,1.2-3,2.7-2.9
		c0.7,0,1.4,0.5,1.6,1.2c0.2,0.7-0.1,1.5-0.3,2.2c-0.2,0.7-0.4,1.5,0,2.2c0.4,0.6,1.5,0.8,1.8,0c0.4-1.4,0.9-2.7,1.3-4.1
		c0.4-1.2,1.1-2.6,2.3-2.5c0.7,0.1,1.3,0.7,1.6,1.4c0.2,0.7,0.2,1.5,0.1,2.2c-0.2,2.2-0.4,4.4-1,6.5c-0.3,1.2-0.8,2.4-0.9,3.6
		c-0.1,1.1,0.1,2.5-0.7,3.3c-0.4,0.4-0.9,0.6-1.4,0.6c-0.9,0.1-1.9-0.2-2.5-0.9c-0.6-0.7-0.8-1.7-0.5-2.6c0.4-0.9,0.8-1.9,0.7-2.9
		c-0.1-1-1.1-1.9-2-1.7C120.6,44.9,120.2,46,119.8,47.2z"/>
	<path id="XMLID_363_" d="M107.5,43.4c-0.2-0.1-0.4-0.3-0.5-0.4c0.4-0.3,1.2,0,1.2,0.6c-0.1,0.1-0.2,0.2-0.4,0.2
		C107.7,43.6,107.6,43.5,107.5,43.4L107.5,43.4z"/>
	<path id="XMLID_359_" d="M187.6,40.2c0.8,0.1,1.6,0.3,2.1,0.9c0.5,0.5,0.7,1.2,0.9,1.9c0.4,1.9,0.7,3.9,0.8,5.8
		c0.1,1.2-0.1,2.6-1.2,3c-0.7,0.2-1.5-0.1-1.9-0.7s-0.7-1.3-0.9-2c-0.5-2-0.8-4-0.9-6c0-0.5-0.8-0.5-1.3-0.3c-0.5,0.3-1.1,0.8-1,1.3
		c0.2,1.4,0.4,2.7,0.5,4.1c0.1,0.5,0.1,1-0.2,1.4c-0.1,0.2-0.4,0.4-0.6,0.5c-1.1,0.7-2.6,1.3-3.7,0.5c-0.8-0.6-1-1.7-1.2-2.7
		c-0.4-2.9-0.8-5.9-0.2-8.8c0-0.2,0.1-0.5,0.2-0.6c0.4-0.5,1.2-0.4,1.8-0.2c0.8,0.2,1.7,0.5,2.1,1.3c0.2,0.4,0.6,1,1,0.8
		C185,39.7,186.4,39.9,187.6,40.2 M183.7,44.2c-0.5,0.4-0.6,1.1-0.2,1.6c0.3-0.1,0.3-0.5,0.3-0.7S183.6,44.5,183.7,44.2 M183.7,49.1
		c0.2,0.1,0.3-0.2,0.3-0.4c-0.1-0.1-0.3-0.1-0.4,0C183.5,48.9,183.6,49.1,183.7,49.1L183.7,49.1z"/>
	<path id="XMLID_338_" d="M142.3,42c-0.4,3.3-0.7,6.5-1.1,9.8c-0.1,1-0.3,2-0.9,2.8s-2,1-2.6,0.3c-1.1-1.3-3.4,0.3-4.8-0.7
		c-0.6-0.4-0.9-1.3-1.6-1.5c-1.1-0.4-1.3-1.9-1.3-3.1c0.1-3.6,0.6-7.1,1.3-10.6c0.1-0.7,0.3-1.4,0.9-1.7c0.6-0.3,1.3-0.2,1.9-0.1
		c0.7,0.1,1.4,0.3,2,0.7c1.5,1.1,1.5,3.3,1.2,5.1c-0.4,2.7-1,5.4-1.7,8c0.2,0.5,1,0.5,1.4,0.1c0.4-0.4,0.4-1,0.5-1.6
		c0.2-2.4,0.7-4.8,1.3-7.2c0.2-0.8,0.4-1.5,0.9-2.1c0.5-0.6,1.4-0.9,2.1-0.4C142.4,40.2,142.4,41.2,142.3,42 M131.5,43.5
		c-0.8,0.6-0.3,1.9-0.7,2.7c-0.2,0.4-0.3,0.8-0.2,1.2c0.3-0.1,0.4-0.4,0.3-0.7c0-0.3-0.1-0.6,0.1-0.8
		C131.4,45.2,131.6,44.3,131.5,43.5 M130.8,48.8c-0.5,0.5-0.6,1.2-0.4,1.8c0,0.1,0.2,0.2,0.3,0.2C130.8,50.2,130.8,49.5,130.8,48.8z
		"/>
	<path id="XMLID_337_" d="M131.8,54c-0.3,0.1-0.7-0.1-1-0.3c-0.4-0.2-0.7-0.4-1-0.8c-0.2-0.3-0.3-0.8-0.1-1.2
		c0.2,0.6,0.6,1.2,1.2,1.5C131.3,53.5,131.7,53.6,131.8,54L131.8,54z"/>
	<path id="XMLID_336_" d="M139.9,70.3c-0.1,0.1-0.1,0.3-0.1,0.4c-1.5,0.2-3-1-3-2.5c-0.1-2.7,0.4-5.4,1.3-7.9c0.2-0.5,0.6-1.1,1.1-1
		c0.7,0.2,1.4,0.4,2,0.7c0.2,0.1,0.3,0.1,0.4,0.3c0.1,0.1,0.1,0.3,0.1,0.5c0.1,1.7,0.3,3.4,0.1,5.2c-0.2,1.7-0.7,3.3-0.4,5
		C140.9,70.7,140.4,70.5,139.9,70.3z"/>
	<path id="XMLID_333_" d="M176.6,46.3c0.3,2,0.4,4.2-0.5,6c-0.5,0.9-1.4,1.7-2.4,1.5c-0.7-0.2-1.2-0.8-1.4-1.5
		c-0.2-0.7-0.1-1.4,0-2.1c0.1-0.5-0.3-0.9-0.8-1.1c-0.5-0.2-1-0.1-1.5-0.1c-0.6,0.1-0.7,0.9-0.7,1.5c0,1.1-0.3,2.4-1.3,2.9
		c-0.7,0.4-1.7,0.2-2.2-0.5c-0.5-0.7-0.5-1.5-0.4-2.4c0.2-2.8,0.6-5.6,1.6-8.2c0.1-0.3,0.3-0.6,0.5-0.9c0.8-1,2.3-1,3.5-0.9
		c1.6,0.1,3.5,0.3,4.4,1.6c0.3,0.4,0.5,1,0.6,1.5C176.2,44.5,176.4,45.4,176.6,46.3 M171.4,44.3c0.1-0.4-0.3-0.8-0.7-0.8
		c-0.4,0-0.7,0.4-0.9,0.8c-0.1,0.4-0.1,0.8-0.1,1.2c0,0.4,0.2,1,0.6,0.9c0.3,0,0.6,0.3,0.9,0.2c0.4,0,0.6-0.7,0.4-1.1
		C171.5,45.2,171.2,44.8,171.4,44.3z"/>
	<path id="XMLID_330_" d="M147.8,58.4c1.5-0.1,3.1,0.2,4.4,1c0.7,0.4,1.3,1.1,1.1,1.9c-0.1,0.4-0.4,0.7-0.7,0.9
		c-1.5,1.3-3.1,2.3-4.7,3.3c0.4,1.2,1,2.5,2.2,2.6c0.6,0.1,1.1-0.2,1.7-0.1c0.9,0.1,1.5,1.2,1.2,2.1c-0.1,0.3,0.3,0.4,0.6,0.4
		c0.3,0,0.6,0.3,0.4,0.5c-0.2-0.1-0.5-0.1-0.7,0.1c-0.1,0.1-0.1,0.2-0.2,0.3c-0.2,0.3-0.7,0.4-1.1,0.4c-0.5,0-0.9-0.1-1.4-0.1
		c-1.3-0.2-2.7-0.6-3.7-1.5c0,0.2-0.2,0.3-0.4,0.2c-2.5-2.8-3.4-7.1-1.4-10.3c0.3-0.5,0.8-1.1,1.3-1.4
		C146.9,58.5,147.4,58.4,147.8,58.4 M150,60.5c-0.6-0.2-1.2-0.1-1.7,0.3c-0.5,0.4-0.8,1-0.9,1.6c0,0.3,0,0.6,0.3,0.6
		c0.1,0,0.2,0,0.3-0.1c0.6-0.3,1.2-0.7,1.8-1c0.4-0.2,0.8-0.6,0.7-1C150.4,60.7,150.2,60.6,150,60.5z"/>
	<path id="XMLID_329_" d="M173.4,62.6c-0.1,0.8,0.2,1.7,0.8,2.3c0.6,0.6,1.5,0.9,2.3,0.8c0.6-0.1,1.1-0.3,1.7-0.4
		c0.6,0,1.2,0.4,1.2,1c-0.7,0.3-0.7,1.4,0,1.8c-1.4,0.6-3,0.9-4.5,0.9c-0.9,0-1.9-0.1-2.7-0.5c-1.3-0.6-2.2-1.9-2.8-3.2
		c-0.3-0.6-0.6-1.2-0.7-1.9c-0.2-1.1,0-2.3,0.3-3.4c0.2-0.6,0.3-1.2,0.7-1.6c0.8-0.8,2-0.8,3.1-0.7c0.8,0.1,1.7,0.1,2.5,0.2
		c0.6,0,1.2,0.1,1.7,0.5c0.3,0.3,0.5,0.7,0.6,1.1c0.2,0.7,0.3,1.4,0,2.1c-0.3,0.6-1.1,1.1-1.8,0.7c-0.5-0.3-0.8-0.9-1.4-0.9
		C173.8,61.4,173.5,62,173.4,62.6z"/>
	<path id="XMLID_328_" d="M161.2,63c-1,0.1-1.5,1.2-1.7,2.1c-0.4,1.3-0.6,2.6-0.6,4c0,0.3-0.1,0.7-0.4,0.6c0-0.2-0.1-0.3-0.3-0.4
		c0,0.5-0.5,0.8-0.9,0.8c-0.4,0.1-0.9-0.1-1.3-0.2c-0.3-0.1-0.6-0.2-0.8-0.4c-0.6-0.5-0.6-1.5-0.5-2.3c0.3-2,0.9-3.9,1.8-5.7
		c0.2-0.4,0.4-0.8,0.8-1.1c0.4-0.3,0.9-0.3,1.2,0.1c0.4,0.4,1.1,0.1,1.6-0.1c1-0.4,2.1-0.6,3.2-0.4c0.4,0.1,0.8,0.2,1.1,0.5
		c0.3,0.3,0.5,0.8,0.6,1.2c0.7,2.4,1.3,4.7,2,7.1c0.2,0.6,0.3,1.3,0,1.9c-1.3,0-2.7-0.4-3.8-1.1c-0.2-0.1-0.5-0.3-0.6-0.5
		c-0.3-0.3-0.3-0.8-0.3-1.2C161.9,66.1,161.6,64.5,161.2,63z"/>
</g>
</svg>
